<svg width="680" height="420" viewBox="0 0 680 420" xmlns="http://www.w3.org/2000/svg" style="background:#ffffff">
<defs>
<marker id="arrow2" viewBox="0 0 10 10" refX="8" refY="5" markerWidth="6" markerHeight="6" orient="auto-start-reverse">
<path d="M2 1L8 5L2 9" fill="none" stroke="#444441" stroke-width="1.5" stroke-linecap="round" stroke-linejoin="round"/>
</marker>
</defs>

<rect x="30" y="30" width="290" height="300" rx="20" fill="#E1F5EE" stroke="#0F6E56" stroke-width="1"/>
<text x="175" y="58" text-anchor="middle" font-family="Arial, sans-serif" font-size="15" font-weight="700" fill="#04342C">European</text>
<text x="175" y="76" text-anchor="middle" font-family="Arial, sans-serif" font-size="12" fill="#085041">Whole-fund gate</text>

<rect x="55" y="95" width="240" height="34" rx="8" fill="#F1EFE8" stroke="#888780" stroke-width="1"/>
<text x="175" y="116" text-anchor="middle" font-family="Arial, sans-serif" font-size="12" fill="#2C2C2A">Deal A — exited</text>

<rect x="55" y="139" width="240" height="34" rx="8" fill="#F1EFE8" stroke="#888780" stroke-width="1"/>
<text x="175" y="160" text-anchor="middle" font-family="Arial, sans-serif" font-size="12" fill="#2C2C2A">Deal B — exited</text>

<rect x="55" y="183" width="240" height="34" rx="8" fill="#F1EFE8" stroke="#888780" stroke-width="1"/>
<text x="175" y="204" text-anchor="middle" font-family="Arial, sans-serif" font-size="12" fill="#2C2C2A">Deal C — unrealized</text>

<line x1="175" y1="217" x2="175" y2="243" stroke="#444441" stroke-width="1.5" marker-end="url(#arrow2)"/>

<rect x="55" y="243" width="240" height="42" rx="8" fill="#FAEEDA" stroke="#854F0B" stroke-width="1.5"/>
<text x="175" y="268" text-anchor="middle" font-family="Arial, sans-serif" font-size="12" fill="#412402">All 3 must clear capital + hurdle</text>

<line x1="175" y1="285" x2="175" y2="300" stroke="#444441" stroke-width="1.5" marker-end="url(#arrow2)"/>
<text x="175" y="318" text-anchor="middle" font-family="Arial, sans-serif" font-size="12" fill="#5F5E5A">GP carry paid once, fund-wide</text>

<rect x="360" y="30" width="290" height="300" rx="20" fill="#FAECE7" stroke="#993C1D" stroke-width="1"/>
<text x="505" y="58" text-anchor="middle" font-family="Arial, sans-serif" font-size="15" font-weight="700" fill="#4A1B0C">American</text>
<text x="505" y="76" text-anchor="middle" font-family="Arial, sans-serif" font-size="12" fill="#712B13">Deal-by-deal gate</text>

<rect x="385" y="95" width="150" height="34" rx="8" fill="#F1EFE8" stroke="#888780" stroke-width="1"/>
<text x="460" y="116" text-anchor="middle" font-family="Arial, sans-serif" font-size="12" fill="#2C2C2A">Deal A — exited</text>
<line x1="535" y1="112" x2="600" y2="112" stroke="#444441" stroke-width="1.5" marker-end="url(#arrow2)"/>
<text x="605" y="117" font-family="Arial, sans-serif" font-size="12" fill="#5F5E5A">carry</text>

<rect x="385" y="139" width="150" height="34" rx="8" fill="#F1EFE8" stroke="#888780" stroke-width="1"/>
<text x="460" y="160" text-anchor="middle" font-family="Arial, sans-serif" font-size="12" fill="#2C2C2A">Deal B — exited</text>
<line x1="535" y1="156" x2="600" y2="156" stroke="#444441" stroke-width="1.5" marker-end="url(#arrow2)"/>
<text x="605" y="161" font-family="Arial, sans-serif" font-size="12" fill="#5F5E5A">carry</text>

<rect x="385" y="183" width="150" height="34" rx="8" fill="#F1EFE8" stroke="#888780" stroke-width="1"/>
<text x="460" y="204" text-anchor="middle" font-family="Arial, sans-serif" font-size="12" fill="#2C2C2A">Deal C — unrealized</text>
<text x="605" y="205" font-family="Arial, sans-serif" font-size="12" fill="#5F5E5A">—</text>

<line x1="505" y1="217" x2="505" y2="243" stroke="#444441" stroke-width="1.5" marker-end="url(#arrow2)"/>

<rect x="385" y="243" width="240" height="42" rx="8" fill="#FAEEDA" stroke="#854F0B" stroke-width="1.5"/>
<text x="505" y="268" text-anchor="middle" font-family="Arial, sans-serif" font-size="12" fill="#412402">Escrow holds back excess carry</text>

<text x="505" y="318" text-anchor="middle" font-family="Arial, sans-serif" font-size="12" fill="#5F5E5A">Clawback true-up at fund close</text>

</svg>
